# xmcd
#
# Track frame offsets:
#	150
#	11383
#	35789
#	52013
#	63338
#	86297
#	100441
#	113246
#	123651
#	136737
#	154197
#	167258
#	181773
#	195883
#	209523
#	230605
#
# Disc length: 3516
#
# Revision: 1
# Processed by: cddbd v1.5.1PL0 Copyright (c) Steve Scherf et al.
# Submitted via: CDex 1.51
# Normalized: r0:DSETVAR1,TDELIM( - )
#
DISCID=cf0dba10
DTITLE=Various Artist - Jazz Edition CD 1
DYEAR=2003
DGENRE=Jazz
TTITLE0=Dinah Washington - Cry Me a River
TTITLE1=Stan Getz, Joao Gilberto, Antonio Carlos Jobim Feat. Astrud Gilberto - The Girl From Ipanema
TTITLE2=Ella Fitzgerald - Let's Do It (Let's Fall in Love)
TTITLE3=Art Van Damme - My Kind of World
TTITLE4=Coleman Hawkins and Ben Webster - La Rosita
TTITLE5=Helen Merril - Anything Goes
TTITLE6=Marvin Gaye - Sweet Lorraine
TTITLE7=Louis Jordan - Peace of Mind
TTITLE8=Ambros Seelos - Hully Gully One, Hully Gully Two
TTITLE9=Oscar Peterson - Samba de Orfeo
TTITLE10=Frankie Laine - Black and Blue
TTITLE11=Shirley Horn - Hit the Road Jack
TTITLE12=Walter Wanderley - Summer Samba
TTITLE13=Sarah Vaughan - Misty
TTITLE14=Dr. John - Blue Skies
TTITLE15=Les McCann - Sunny
EXTD=YEAR: 2003
EXTT0=
EXTT1=
EXTT2=
EXTT3=
EXTT4=
EXTT5=
EXTT6=
EXTT7=
EXTT8=
EXTT9=
EXTT10=
EXTT11=
EXTT12=
EXTT13=
EXTT14=
EXTT15=
PLAYORDER=
